<svg width="18" height="18" viewBox="0 0 18 18" fill="none" xmlns="http://www.w3.org/2000/svg">
<path fill-rule="evenodd" clip-rule="evenodd" d="M6.24219 3.52344C4.89599 3.52344 3.80469 4.61474 3.80469 5.96094V11.9609C3.80469 13.3071 4.89599 14.3984 6.24219 14.3984H12.2422C13.5884 14.3984 14.6797 13.3071 14.6797 11.9609V5.96094C14.6797 4.61474 13.5884 3.52344 12.2422 3.52344H6.24219ZM2.67969 5.96094C2.67969 3.99342 4.27467 2.39844 6.24219 2.39844H12.2422C14.2097 2.39844 15.8047 3.99342 15.8047 5.96094V11.9609C15.8047 13.9285 14.2097 15.5234 12.2422 15.5234H6.24219C4.27467 15.5234 2.67969 13.9285 2.67969 11.9609V5.96094ZM9.24219 7.27344C8.31021 7.27344 7.55469 8.02896 7.55469 8.96094C7.55469 9.89292 8.31021 10.6484 9.24219 10.6484C10.1742 10.6484 10.9297 9.89292 10.9297 8.96094C10.9297 8.02896 10.1742 7.27344 9.24219 7.27344ZM6.42969 8.96094C6.42969 7.40764 7.68889 6.14844 9.24219 6.14844C10.7955 6.14844 12.0547 7.40764 12.0547 8.96094C12.0547 10.5142 10.7955 11.7734 9.24219 11.7734C7.68889 11.7734 6.42969 10.5142 6.42969 8.96094ZM13.1797 5.58594C13.1797 5.27528 12.9278 5.02344 12.6172 5.02344C12.3065 5.02344 12.0547 5.27528 12.0547 5.58594V5.58694C12.0547 5.8976 12.3065 6.14944 12.6172 6.14944C12.9278 6.14944 13.1797 5.8976 13.1797 5.58694V5.58594Z" fill="#282828"/>
</svg>
